<svg xmlns="http://www.w3.org/2000/svg" width="518" height="272" viewBox="0 0 518 272" font-family="'Cascadia Code','JetBrains Mono','Fira Code',Menlo,Consolas,'DejaVu Sans Mono',monospace" font-size="17px"><rect width="518" height="272" fill="#6867aa"/><rect x="17.0" y="22.0" width="484.0" height="238.0" rx="15.0" fill="#080812" fill-opacity="0.070588"/><rect x="19.0" y="23.0" width="480.0" height="234.0" rx="13.0" fill="#080812" fill-opacity="0.078431"/><rect x="21.0" y="24.0" width="476.0" height="230.0" rx="11.0" fill="#080812" fill-opacity="0.086275"/><rect x="23.0" y="25.0" width="472.0" height="226.0" rx="9.0" fill="#080812" fill-opacity="0.094118"/><g transform="translate(24 24)"><rect width="470" height="224" rx="8" fill="#000000"/><path d="M0 8.0 Q0 0 8.0 0 H462.0 Q470.0 0 470.0 8.0 V33.0 H0 Z" fill="#d9d9e8"/><rect y="33.0" width="470" height="1.0" fill="#000000"/><circle cx="20.0" cy="17.0" r="7.0" fill="#ec6a5e"/><circle cx="40.0" cy="17.0" r="7.0" fill="#f4bf4f"/><circle cx="60.0" cy="17.0" r="7.0" fill="#61c554"/><circle cx="20.0" cy="17.0" r="2.5" fill="#69110a"/><text x="235.00" y="21.55" fill="#414145" font-size="13px" font-weight="bold" text-anchor="middle" xml:space="preserve">tui-test capture - 44x8</text><text x="15.00" y="57.26" fill="#c0c0c0" textLength="440.00" lengthAdjust="spacingAndGlyphs" xml:space="preserve">&gt; ./suite                                   </text><text x="15.00" y="78.26" fill="#c0c0c0" textLength="50.00" lengthAdjust="spacingAndGlyphs" xml:space="preserve">PASS </text><text x="65.00" y="78.26" fill="#008000" textLength="10.00" lengthAdjust="spacingAndGlyphs" xml:space="preserve">✓</text><text x="75.00" y="78.26" fill="#c0c0c0" textLength="110.00" lengthAdjust="spacingAndGlyphs" xml:space="preserve"> parser    </text><text x="185.00" y="78.26" fill="#737373" textLength="40.00" lengthAdjust="spacingAndGlyphs" xml:space="preserve">12ms</text><text x="15.00" y="99.26" fill="#c0c0c0" textLength="50.00" lengthAdjust="spacingAndGlyphs" xml:space="preserve">PASS </text><text x="65.00" y="99.26" fill="#008000" textLength="10.00" lengthAdjust="spacingAndGlyphs" xml:space="preserve">✓</text><text x="75.00" y="99.26" fill="#c0c0c0" textLength="110.00" lengthAdjust="spacingAndGlyphs" xml:space="preserve"> renderer  </text><text x="185.00" y="99.26" fill="#737373" textLength="40.00" lengthAdjust="spacingAndGlyphs" xml:space="preserve"> 8ms</text><text x="15.00" y="120.26" fill="#c0c0c0" textLength="50.00" lengthAdjust="spacingAndGlyphs" xml:space="preserve">FAIL </text><text x="65.00" y="120.26" fill="#800000" textLength="10.00" lengthAdjust="spacingAndGlyphs" xml:space="preserve">✗</text><text x="85.00" y="120.26" fill="#c0c0c0" font-weight="bold" textLength="60.00" lengthAdjust="spacingAndGlyphs" xml:space="preserve">cursor</text><text x="185.00" y="120.26" fill="#737373" textLength="40.00" lengthAdjust="spacingAndGlyphs" xml:space="preserve"> 3ms</text><text x="15.00" y="141.26" fill="#737373" textLength="180.00" lengthAdjust="spacingAndGlyphs" xml:space="preserve">2 passed, 1 failed</text><text x="15.00" y="162.26" fill="#c0c0c0" textLength="440.00" lengthAdjust="spacingAndGlyphs" xml:space="preserve">&gt;                                           </text><rect x="35.00" y="147.00" width="10.00" height="21.00" fill="#c0c0c0"/></g></svg>